<?xml version="1.0" encoding="utf-8"?>
<!-- Generator: Adobe Illustrator 17.0.0, SVG Export Plug-In . SVG Version: 6.00 Build 0)  -->
<!DOCTYPE svg PUBLIC "-//W3C//DTD SVG 1.1//EN" "http://www.w3.org/Graphics/SVG/1.1/DTD/svg11.dtd">
<svg version="1.1" id="Capa_1" xmlns="http://www.w3.org/2000/svg" xmlns:xlink="http://www.w3.org/1999/xlink" x="0px" y="0px"
	 width="336px" height="87.737px" viewBox="0 0 336 87.737" enable-background="new 0 0 336 87.737" xml:space="preserve">
<g>
	<g>
		<path fill="#414042" d="M237.73,26.048c-1.912,2.086-4.105,3.129-6.577,3.129c-1.39,0-2.671-0.299-3.839-0.898
			c-1.168-0.598-2.183-1.39-3.041-2.375c-0.86-0.986-1.531-2.1-2.014-3.347c-0.483-1.245-0.725-2.524-0.725-3.837
			c0-1.372,0.236-2.685,0.71-3.941c0.473-1.255,1.13-2.361,1.97-3.318c0.84-0.956,1.844-1.718,3.014-2.288
			c1.168-0.569,2.437-0.855,3.809-0.855c1.005,0,1.918,0.111,2.738,0.333c0.821,0.223,1.555,0.533,2.202,0.928
			c0.646,0.395,1.211,0.869,1.694,1.418c0.482,0.551,0.889,1.155,1.217,1.812l-1.564,1.043c-0.676-1.275-1.555-2.212-2.637-2.81
			c-1.082-0.599-2.308-0.898-3.679-0.898c-1.14,0-2.168,0.242-3.086,0.723c-0.918,0.483-1.699,1.126-2.347,1.927
			c-0.647,0.803-1.144,1.72-1.492,2.752c-0.347,1.034-0.52,2.1-0.52,3.202c0,1.159,0.197,2.259,0.594,3.302
			c0.395,1.042,0.941,1.955,1.637,2.738c0.695,0.782,1.512,1.404,2.447,1.868c0.938,0.463,1.957,0.696,3.057,0.696
			c1.178,0,2.299-0.275,3.361-0.826c1.061-0.55,2.086-1.414,3.071-2.592v-3.449h-4.549v-1.563h6.286v10.11h-1.737V26.048z"/>
		<path fill="#414042" d="M243.349,7.883h1.97v17.73c0,0.56,0.155,1,0.465,1.318c0.308,0.318,0.742,0.477,1.303,0.477
			c0.212,0,0.464-0.028,0.754-0.086c0.288-0.059,0.561-0.136,0.811-0.232l0.348,1.594c-0.367,0.155-0.816,0.281-1.348,0.376
			c-0.531,0.097-0.989,0.145-1.375,0.145c-0.909,0-1.623-0.256-2.145-0.768c-0.521-0.512-0.782-1.231-0.782-2.158V7.883z"/>
		<path fill="#414042" d="M257.4,29.322c-1.1,0-2.11-0.207-3.026-0.622c-0.918-0.415-1.71-0.98-2.376-1.694
			c-0.667-0.715-1.184-1.545-1.551-2.492c-0.366-0.946-0.551-1.941-0.551-2.984c0-1.062,0.189-2.067,0.565-3.014
			c0.377-0.946,0.898-1.776,1.565-2.492c0.665-0.714,1.457-1.285,2.375-1.709c0.916-0.425,1.916-0.638,2.998-0.638
			c1.082,0,2.081,0.213,2.998,0.638c0.918,0.424,1.71,0.995,2.376,1.709c0.667,0.715,1.188,1.545,1.564,2.492
			c0.378,0.946,0.565,1.951,0.565,3.014c0,1.043-0.188,2.038-0.565,2.984c-0.377,0.946-0.897,1.776-1.564,2.492
			c-0.666,0.714-1.458,1.279-2.376,1.694C259.481,29.115,258.482,29.322,257.4,29.322z M251.924,21.559
			c0,0.85,0.14,1.637,0.421,2.361c0.279,0.725,0.665,1.362,1.159,1.913c0.491,0.549,1.071,0.98,1.738,1.288
			c0.665,0.31,1.376,0.463,2.129,0.463c0.753,0,1.463-0.159,2.129-0.478c0.667-0.319,1.25-0.753,1.753-1.304
			c0.502-0.549,0.898-1.191,1.188-1.926c0.29-0.734,0.435-1.525,0.435-2.376c0-0.83-0.145-1.617-0.435-2.361
			c-0.29-0.743-0.686-1.39-1.188-1.941c-0.503-0.55-1.082-0.984-1.738-1.304c-0.657-0.318-1.362-0.477-2.115-0.477
			c-0.753,0-1.463,0.159-2.129,0.477c-0.667,0.32-1.246,0.758-1.738,1.318c-0.492,0.561-0.884,1.212-1.174,1.956
			C252.07,19.911,251.924,20.709,251.924,21.559z"/>
		<path fill="#414042" d="M275.506,29.322c-1.179,0-2.27-0.299-3.273-0.898c-1.005-0.598-1.787-1.371-2.347-2.318v2.926h-1.768
			V7.883h1.97v9.214c0.676-1.024,1.488-1.85,2.435-2.478c0.946-0.628,2.057-0.942,3.331-0.942c1.043,0,1.989,0.223,2.84,0.667
			c0.85,0.444,1.569,1.039,2.157,1.782c0.589,0.744,1.043,1.583,1.362,2.521c0.319,0.937,0.479,1.898,0.479,2.883
			c0,1.061-0.184,2.066-0.551,3.013c-0.367,0.946-0.874,1.772-1.521,2.477c-0.647,0.705-1.411,1.265-2.289,1.68
			C277.453,29.115,276.51,29.322,275.506,29.322z M275.043,27.584c0.83,0,1.588-0.169,2.273-0.506
			c0.685-0.338,1.275-0.793,1.767-1.361c0.493-0.569,0.878-1.217,1.159-1.941c0.279-0.725,0.42-1.473,0.42-2.245
			c0-0.792-0.131-1.555-0.392-2.289c-0.261-0.733-0.628-1.386-1.1-1.955c-0.474-0.569-1.039-1.023-1.695-1.361
			c-0.656-0.338-1.381-0.508-2.172-0.508c-0.599,0-1.159,0.102-1.681,0.304c-0.521,0.204-1.004,0.478-1.449,0.826
			c-0.444,0.347-0.845,0.748-1.202,1.202c-0.357,0.454-0.651,0.932-0.884,1.435v4.692c0.077,0.522,0.286,1.01,0.624,1.463
			c0.337,0.454,0.748,0.846,1.23,1.173c0.483,0.329,0.995,0.59,1.535,0.782C274.019,27.488,274.54,27.584,275.043,27.584z"/>
		<path fill="#414042" d="M289.963,29.322c-0.772,0-1.478-0.12-2.115-0.362c-0.638-0.241-1.183-0.574-1.638-1
			c-0.454-0.424-0.807-0.918-1.057-1.477c-0.251-0.56-0.376-1.149-0.376-1.768c0-0.696,0.154-1.328,0.463-1.898
			c0.309-0.569,0.743-1.057,1.303-1.463c0.561-0.405,1.233-0.719,2.015-0.941c0.781-0.222,1.646-0.333,2.593-0.333
			c0.754,0,1.525,0.068,2.317,0.202c0.792,0.136,1.497,0.329,2.115,0.58v-1.361c0-1.333-0.382-2.39-1.145-3.173
			c-0.764-0.782-1.792-1.173-3.085-1.173c-0.811,0-1.619,0.155-2.419,0.465c-0.803,0.308-1.618,0.753-2.449,1.333l-0.695-1.304
			c0.985-0.657,1.942-1.149,2.869-1.477c0.927-0.329,1.893-0.494,2.897-0.494c1.835,0,3.293,0.533,4.375,1.594
			c1.081,1.062,1.622,2.531,1.622,4.404v6.809c0,0.54,0.231,0.81,0.696,0.81v1.738c-0.155,0.019-0.301,0.034-0.435,0.044
			c-0.136,0.009-0.252,0.015-0.349,0.015c-0.387,0-0.739-0.116-1.058-0.349c-0.318-0.231-0.497-0.58-0.535-1.043l-0.059-1.188
			c-0.656,0.889-1.521,1.58-2.592,2.072C292.15,29.077,291.064,29.322,289.963,29.322z M290.455,27.816
			c0.869,0,1.733-0.188,2.592-0.565c0.86-0.376,1.541-0.893,2.043-1.549c0.136-0.173,0.251-0.363,0.349-0.565
			c0.096-0.202,0.145-0.392,0.145-0.565v-2.463c-0.657-0.251-1.343-0.444-2.057-0.578c-0.715-0.136-1.411-0.204-2.086-0.204
			c-1.411,0-2.555,0.286-3.434,0.855c-0.879,0.57-1.318,1.357-1.318,2.361c0,0.406,0.076,0.801,0.232,1.188
			c0.153,0.386,0.392,0.733,0.71,1.043c0.318,0.31,0.71,0.56,1.173,0.753C289.268,27.719,289.819,27.816,290.455,27.816z"/>
		<path fill="#414042" d="M301.927,7.883h1.97v17.73c0,0.56,0.155,1,0.465,1.318c0.308,0.318,0.742,0.477,1.303,0.477
			c0.213,0,0.465-0.028,0.754-0.086c0.289-0.059,0.561-0.136,0.811-0.232l0.348,1.594c-0.367,0.155-0.815,0.281-1.347,0.376
			c-0.531,0.097-0.99,0.145-1.376,0.145c-0.908,0-1.623-0.256-2.145-0.768c-0.52-0.512-0.782-1.231-0.782-2.158V7.883z"/>
		<path fill="#414042" d="M241.061,55.299v-16.89l-7.504,13.066h-1.188l-7.533-13.066v16.89h-1.998V34.73h2.057l8.054,14.079
			l8.055-14.079h2.058v20.569H241.061z"/>
		<path fill="#414042" d="M251.781,55.589c-0.772,0-1.477-0.122-2.115-0.362c-0.638-0.241-1.183-0.575-1.637-0.999
			c-0.455-0.426-0.807-0.918-1.058-1.478c-0.251-0.561-0.376-1.149-0.376-1.768c0-0.696,0.154-1.327,0.464-1.899
			c0.308-0.569,0.742-1.057,1.302-1.463c0.561-0.404,1.232-0.719,2.015-0.941c0.781-0.222,1.645-0.333,2.594-0.333
			c0.753,0,1.524,0.068,2.316,0.203c0.792,0.136,1.497,0.329,2.116,0.579v-1.361c0-1.333-0.383-2.39-1.146-3.173
			c-0.763-0.782-1.792-1.173-3.085-1.173c-0.811,0-1.619,0.155-2.419,0.464c-0.803,0.308-1.618,0.753-2.448,1.333l-0.696-1.304
			c0.985-0.656,1.942-1.148,2.869-1.478c0.927-0.329,1.893-0.493,2.896-0.493c1.835,0,3.293,0.532,4.375,1.594
			c1.081,1.062,1.622,2.531,1.622,4.404v6.809c0,0.54,0.231,0.811,0.696,0.811v1.738c-0.155,0.02-0.301,0.034-0.435,0.043
			c-0.136,0.011-0.252,0.015-0.349,0.015c-0.387,0-0.739-0.115-1.058-0.348c-0.318-0.232-0.497-0.579-0.535-1.043l-0.059-1.188
			c-0.656,0.889-1.521,1.579-2.592,2.071C253.967,55.342,252.881,55.589,251.781,55.589z M252.273,54.083
			c0.869,0,1.733-0.189,2.593-0.565c0.859-0.377,1.54-0.893,2.042-1.55c0.136-0.174,0.251-0.362,0.349-0.564
			c0.096-0.203,0.146-0.392,0.146-0.565v-2.462c-0.658-0.251-1.344-0.444-2.058-0.579c-0.715-0.136-1.411-0.203-2.086-0.203
			c-1.411,0-2.554,0.286-3.434,0.854c-0.879,0.569-1.318,1.356-1.318,2.361c0,0.404,0.077,0.802,0.232,1.188
			c0.153,0.387,0.392,0.733,0.71,1.043s0.71,0.561,1.173,0.753C251.085,53.986,251.636,54.083,252.273,54.083z"/>
		<path fill="#414042" d="M271.19,41.944c-1.333,0.039-2.49,0.406-3.476,1.101c-0.985,0.695-1.68,1.652-2.086,2.869v9.386h-1.97
			V40.205h1.853v3.622c0.522-1.062,1.207-1.946,2.058-2.651c0.85-0.705,1.767-1.057,2.752-1.057c0.174,0,0.337,0,0.492,0
			c0.154,0,0.279,0.009,0.376,0.029V41.944z"/>
		<path fill="#414042" d="M284.604,55.299l-5.562-7.735l-3.245,3.012v4.723h-1.97V34.151h1.97V48.52l8.489-8.286h2.23l-6.171,6.171
			l6.402,8.894H284.604z"/>
		<path fill="#414042" d="M295.7,55.589c-1.102,0-2.115-0.208-3.042-0.623c-0.927-0.415-1.729-0.985-2.404-1.71
			c-0.676-0.725-1.202-1.56-1.579-2.506c-0.376-0.946-0.565-1.959-0.565-3.042c0-1.062,0.189-2.061,0.565-2.998
			c0.377-0.937,0.903-1.758,1.579-2.463c0.676-0.705,1.473-1.265,2.39-1.68c0.918-0.416,1.927-0.624,3.028-0.624
			c1.1,0,2.109,0.208,3.027,0.624c0.917,0.415,1.704,0.98,2.36,1.694c0.657,0.715,1.169,1.535,1.535,2.463
			c0.367,0.926,0.551,1.912,0.551,2.955c0,0.154-0.005,0.309-0.015,0.463c-0.01,0.154-0.024,0.26-0.043,0.318h-12.893
			c0.059,0.81,0.246,1.559,0.564,2.245c0.319,0.685,0.725,1.279,1.219,1.781c0.491,0.503,1.06,0.895,1.708,1.174
			c0.648,0.28,1.338,0.42,2.071,0.42c0.503,0,0.995-0.067,1.477-0.203c0.483-0.135,0.927-0.318,1.333-0.55
			c0.406-0.232,0.768-0.517,1.086-0.854c0.319-0.339,0.565-0.711,0.738-1.116l1.71,0.463c-0.232,0.562-0.56,1.068-0.985,1.522
			c-0.424,0.454-0.917,0.85-1.478,1.188c-0.559,0.338-1.177,0.599-1.853,0.782C297.11,55.498,296.413,55.589,295.7,55.589z
			 M301.262,46.956c-0.058-0.812-0.246-1.551-0.564-2.216c-0.319-0.667-0.725-1.241-1.218-1.724
			c-0.492-0.483-1.067-0.859-1.723-1.129c-0.658-0.27-1.353-0.406-2.086-0.406c-0.734,0-1.431,0.136-2.087,0.406
			c-0.657,0.271-1.231,0.646-1.724,1.129c-0.493,0.483-0.889,1.063-1.188,1.738c-0.3,0.676-0.478,1.41-0.536,2.202H301.262z"/>
		<path fill="#414042" d="M313.255,54.575c-0.114,0.058-0.284,0.136-0.506,0.232c-0.223,0.097-0.478,0.193-0.768,0.29
			c-0.29,0.097-0.619,0.183-0.985,0.26c-0.367,0.077-0.753,0.116-1.159,0.116c-0.425,0-0.83-0.058-1.217-0.174
			c-0.387-0.116-0.725-0.294-1.014-0.536c-0.29-0.24-0.522-0.546-0.694-0.913c-0.175-0.366-0.262-0.791-0.262-1.274V41.771h-2.086
			v-1.565h2.086v-5.098h1.97v5.098h3.478v1.565h-3.478v10.255c0.039,0.56,0.232,0.97,0.58,1.23c0.347,0.261,0.762,0.392,1.245,0.392
			c0.56,0,1.053-0.091,1.478-0.275c0.425-0.183,0.695-0.313,0.811-0.392L313.255,54.575z"/>
		<path fill="#414042" d="M320.643,55.589c-1.177,0-2.327-0.193-3.447-0.58c-1.119-0.386-2.085-0.946-2.897-1.68l0.899-1.333
			c0.849,0.694,1.714,1.217,2.593,1.564c0.878,0.348,1.82,0.521,2.824,0.521c1.217,0,2.188-0.246,2.912-0.738
			c0.725-0.494,1.086-1.193,1.086-2.101c0-0.426-0.097-0.777-0.29-1.059c-0.193-0.279-0.478-0.525-0.855-0.738
			c-0.376-0.212-0.85-0.399-1.419-0.564c-0.57-0.164-1.232-0.334-1.985-0.507c-0.868-0.211-1.622-0.424-2.26-0.637
			c-0.637-0.213-1.164-0.453-1.579-0.724c-0.415-0.27-0.723-0.603-0.927-1c-0.202-0.395-0.304-0.893-0.304-1.492
			c0-0.753,0.149-1.419,0.448-1.999c0.299-0.58,0.705-1.057,1.217-1.435c0.512-0.376,1.111-0.662,1.798-0.855
			c0.685-0.192,1.413-0.29,2.185-0.29c1.159,0,2.213,0.189,3.159,0.565c0.946,0.377,1.708,0.875,2.288,1.492l-0.956,1.159
			c-0.561-0.579-1.241-1.014-2.042-1.304c-0.802-0.289-1.637-0.435-2.506-0.435c-0.522,0-1.006,0.053-1.449,0.159
			c-0.444,0.107-0.835,0.275-1.174,0.508c-0.338,0.231-0.603,0.526-0.796,0.883c-0.193,0.358-0.29,0.778-0.29,1.26
			c0,0.406,0.068,0.735,0.202,0.985c0.137,0.252,0.358,0.469,0.668,0.651c0.308,0.184,0.699,0.349,1.173,0.494
			c0.473,0.145,1.047,0.295,1.723,0.449c0.966,0.231,1.816,0.463,2.551,0.696c0.733,0.231,1.347,0.502,1.839,0.811
			c0.492,0.31,0.864,0.685,1.116,1.129c0.251,0.444,0.376,0.985,0.376,1.622c0,1.392-0.531,2.492-1.594,3.304
			C323.869,55.183,322.439,55.589,320.643,55.589z"/>
		<path fill="#414042" d="M237.73,78.583c-1.912,2.086-4.105,3.128-6.577,3.128c-1.39,0-2.671-0.299-3.839-0.897
			c-1.168-0.6-2.183-1.39-3.041-2.376c-0.86-0.985-1.531-2.1-2.014-3.347c-0.483-1.245-0.725-2.524-0.725-3.838
			c0-1.371,0.236-2.684,0.71-3.939c0.473-1.256,1.13-2.361,1.97-3.318c0.84-0.955,1.844-1.719,3.014-2.288
			c1.168-0.57,2.437-0.854,3.809-0.854c1.005,0,1.918,0.11,2.738,0.333c0.821,0.222,1.555,0.531,2.202,0.926
			c0.646,0.397,1.211,0.87,1.694,1.421c0.482,0.551,0.889,1.153,1.217,1.81l-1.564,1.043c-0.676-1.273-1.555-2.211-2.637-2.81
			c-1.082-0.598-2.308-0.898-3.679-0.898c-1.14,0-2.168,0.241-3.086,0.725c-0.918,0.483-1.699,1.125-2.347,1.927
			c-0.647,0.801-1.144,1.719-1.492,2.753c-0.347,1.033-0.52,2.1-0.52,3.2c0,1.159,0.197,2.261,0.594,3.304
			c0.395,1.043,0.941,1.955,1.637,2.737c0.695,0.783,1.512,1.405,2.447,1.869c0.938,0.463,1.957,0.695,3.057,0.695
			c1.178,0,2.299-0.275,3.361-0.826c1.061-0.551,2.086-1.415,3.071-2.593v-3.448h-4.549v-1.563h6.286v10.11h-1.737V78.583z"/>
		<path fill="#414042" d="M250.794,68.211c-1.333,0.039-2.49,0.405-3.477,1.101c-0.985,0.695-1.68,1.651-2.085,2.869v9.386h-1.97
			V66.472h1.854v3.621c0.521-1.062,1.207-1.945,2.057-2.65c0.85-0.704,1.768-1.059,2.753-1.059c0.174,0,0.337,0,0.492,0
			c0.154,0,0.279,0.011,0.376,0.03V68.211z"/>
		<path fill="#414042" d="M259.255,81.856c-1.103,0-2.111-0.208-3.028-0.623c-0.918-0.415-1.709-0.979-2.376-1.695
			c-0.666-0.714-1.183-1.544-1.549-2.491c-0.368-0.945-0.551-1.941-0.551-2.984c0-1.061,0.188-2.066,0.565-3.013
			c0.376-0.946,0.898-1.776,1.564-2.491c0.666-0.714,1.457-1.284,2.375-1.71c0.918-0.424,1.918-0.637,3-0.637
			c1.08,0,2.08,0.213,2.998,0.637c0.917,0.426,1.708,0.996,2.375,1.71c0.666,0.715,1.188,1.545,1.565,2.491
			c0.376,0.946,0.564,1.952,0.564,3.013c0,1.043-0.188,2.039-0.564,2.984c-0.378,0.947-0.899,1.777-1.565,2.491
			c-0.667,0.716-1.458,1.28-2.375,1.695C261.335,81.648,260.335,81.856,259.255,81.856z M253.78,74.091
			c0,0.851,0.14,1.638,0.419,2.36c0.28,0.725,0.667,1.363,1.158,1.913c0.494,0.551,1.073,0.981,1.739,1.289
			c0.667,0.31,1.376,0.464,2.129,0.464c0.754,0,1.463-0.16,2.13-0.478c0.666-0.318,1.25-0.753,1.753-1.304
			c0.501-0.551,0.898-1.191,1.187-1.927c0.29-0.733,0.435-1.525,0.435-2.375c0-0.83-0.145-1.617-0.435-2.361
			c-0.289-0.743-0.686-1.391-1.187-1.941c-0.503-0.551-1.082-0.985-1.738-1.304c-0.657-0.318-1.361-0.478-2.114-0.478
			c-0.754,0-1.464,0.159-2.131,0.478c-0.665,0.318-1.245,0.759-1.738,1.318c-0.492,0.561-0.883,1.213-1.172,1.955
			C253.924,72.445,253.78,73.241,253.78,74.091z"/>
		<path fill="#414042" d="M274.637,81.856c-1.583,0-2.781-0.546-3.592-1.637c-0.812-1.092-1.217-2.719-1.217-4.882v-8.865h1.97
			v8.518c0,3.419,1.168,5.128,3.506,5.128c0.58,0,1.148-0.097,1.709-0.29c0.56-0.192,1.076-0.473,1.551-0.84
			c0.472-0.366,0.897-0.801,1.273-1.304c0.377-0.502,0.682-1.071,0.912-1.71v-9.502h1.971v12.545c0,0.54,0.242,0.81,0.725,0.81
			v1.738c-0.388,0.058-0.657,0.088-0.812,0.088c-0.444,0-0.825-0.136-1.145-0.406c-0.318-0.271-0.478-0.608-0.478-1.014v-2.086
			c-0.677,1.179-1.574,2.091-2.694,2.736C277.197,81.532,275.97,81.856,274.637,81.856z"/>
		<path fill="#414042" d="M294.916,81.856c-1.274,0-2.404-0.324-3.39-0.972c-0.985-0.646-1.777-1.461-2.375-2.447v9.3h-1.97V66.472
			h1.768v2.927c0.617-0.946,1.419-1.714,2.404-2.304c0.983-0.589,2.057-0.884,3.216-0.884c1.043,0,2.002,0.218,2.882,0.652
			c0.879,0.435,1.637,1.013,2.274,1.737c0.639,0.725,1.135,1.56,1.492,2.506c0.357,0.946,0.536,1.923,0.536,2.927
			c0,1.062-0.164,2.067-0.491,3.013c-0.329,0.947-0.798,1.777-1.406,2.491c-0.608,0.716-1.333,1.28-2.172,1.695
			C296.843,81.648,295.92,81.856,294.916,81.856z M294.366,80.118c0.812,0,1.546-0.174,2.202-0.521
			c0.656-0.349,1.222-0.807,1.694-1.377c0.474-0.569,0.835-1.217,1.087-1.94c0.251-0.725,0.376-1.473,0.376-2.245
			c0-0.811-0.145-1.583-0.435-2.318c-0.289-0.733-0.685-1.38-1.188-1.94c-0.503-0.561-1.097-1.004-1.781-1.333
			c-0.686-0.328-1.425-0.492-2.217-0.492c-0.502,0-1.023,0.102-1.564,0.304c-0.542,0.203-1.054,0.475-1.536,0.811
			c-0.483,0.34-0.892,0.735-1.231,1.189c-0.338,0.453-0.545,0.932-0.622,1.434v4.636c0.23,0.54,0.525,1.043,0.884,1.507
			c0.357,0.463,0.762,0.863,1.216,1.201c0.454,0.339,0.946,0.604,1.478,0.797C293.26,80.021,293.806,80.118,294.366,80.118z"/>
	</g>
	<g>
		<g>
			<linearGradient id="SVGID_1_" gradientUnits="userSpaceOnUse" x1="212.6005" y1="30.6967" x2="4.1029" y2="110.8884">
				<stop  offset="0" style="stop-color:#1C75BC"/>
				<stop  offset="1" style="stop-color:#232176"/>
			</linearGradient>
			<path fill="url(#SVGID_1_)" d="M213.472,40.019v4.521c0,5.121-0.969,9.906-2.903,14.362c-1.937,4.459-4.573,8.356-7.919,11.705
				c-3.336,3.342-7.242,5.98-11.697,7.917c-4.458,1.93-9.242,2.898-14.358,2.898c-5.115,0-9.899-0.969-14.358-2.898
				c-4.461-1.937-8.359-4.575-11.703-7.917c-3.343-3.349-5.983-7.246-7.919-11.705c-1.933-4.456-2.899-9.241-2.899-14.362
				c0-5.107,0.967-9.893,2.899-14.355c1.936-4.455,4.576-8.356,7.919-11.702c3.344-3.345,7.242-5.982,11.703-7.917
				c4.459-1.932,9.243-2.899,14.358-2.899c5.571,0,10.734,1.132,15.487,3.391c4.755,2.261,8.835,5.361,12.244,9.296l-6.783,5.898
				c-2.56-2.951-5.641-5.278-9.248-6.983c-3.604-1.702-7.507-2.556-11.7-2.556c-3.87,0-7.493,0.737-10.87,2.211
				c-3.375,1.478-6.326,3.458-8.847,5.951c-2.529,2.489-4.509,5.444-5.952,8.848c-1.438,3.412-2.164,7.017-2.164,10.815
				c0,3.875,0.727,7.496,2.164,10.87c1.443,3.377,3.423,6.328,5.952,8.853c2.521,2.524,5.472,4.514,8.847,5.949
				c3.377,1.442,7,2.163,10.87,2.163c3.477,0,6.753-0.589,9.833-1.768c3.083-1.183,5.834-2.821,8.264-4.921
				c2.422-2.098,4.456-4.555,6.09-7.374c1.643-2.818,2.723-5.897,3.25-9.244h-35.959v-9.049H213.472z"/>
		</g>
		<linearGradient id="SVGID_2_" gradientUnits="userSpaceOnUse" x1="205.2792" y1="11.6533" x2="-3.2212" y2="91.8462">
			<stop  offset="0" style="stop-color:#1C75BC"/>
			<stop  offset="1" style="stop-color:#232176"/>
		</linearGradient>
		<rect x="73.147" y="40.033" fill="url(#SVGID_2_)" width="9.05" height="41.4"/>
		<linearGradient id="SVGID_3_" gradientUnits="userSpaceOnUse" x1="204.1418" y1="8.709" x2="-4.3518" y2="88.8992">
			<stop  offset="0" style="stop-color:#1C75BC"/>
			<stop  offset="1" style="stop-color:#232176"/>
		</linearGradient>
		<polygon fill="url(#SVGID_3_)" points="147.131,7.668 147.131,7.668 136.936,7.668 111.112,54.958 85.283,7.668 75.087,7.668 
			75.087,7.668 73.147,7.668 73.147,27.341 75.087,27.341 82.197,27.341 82.21,27.341 82.21,20.773 109.044,67.321 113.279,67.321 
			139.714,21.286 139.714,81.433 148.761,81.433 148.761,7.668 		"/>
		<linearGradient id="SVGID_4_" gradientUnits="userSpaceOnUse" x1="195.7346" y1="-13.1524" x2="-12.7603" y2="67.0383">
			<stop  offset="0" style="stop-color:#1C75BC"/>
			<stop  offset="1" style="stop-color:#232176"/>
		</linearGradient>
		<path fill="url(#SVGID_4_)" d="M80.277,40.019H37.198v9.049h35.961c-0.524,3.347-1.61,6.426-3.247,9.244
			c-1.641,2.819-3.674,5.276-6.098,7.374c-2.426,2.1-5.18,3.738-8.26,4.921c-3.078,1.179-6.361,1.768-9.833,1.768
			c-3.87,0-7.492-0.721-10.868-2.163c-3.379-1.436-6.328-3.425-8.846-5.949c-2.534-2.524-4.51-5.476-5.954-8.853
			c-1.44-3.374-2.165-6.994-2.165-10.87c0-3.798,0.725-7.403,2.165-10.815c1.444-3.404,3.42-6.359,5.954-8.848
			c2.518-2.493,5.467-4.473,8.846-5.951c3.376-1.474,6.998-2.211,10.868-2.211c4.194,0,8.097,0.854,11.702,2.556
			c3.601,1.705,6.687,4.032,9.247,6.983c0.284,0.332,0.564,0.741,0.839,1.087h5.941v-6.986c-3.408-3.935-7.488-7.035-12.241-9.296
			C56.455,8.8,51.29,7.668,45.721,7.668c-5.119,0-9.899,0.967-14.358,2.899c-4.461,1.934-8.361,4.571-11.703,7.917
			c-3.346,3.345-5.982,7.247-7.922,11.702c-1.932,4.462-2.9,9.248-2.9,14.355c0,5.121,0.969,9.906,2.9,14.362
			c1.939,4.459,4.576,8.356,7.922,11.705c3.342,3.342,7.242,5.98,11.703,7.917c4.459,1.93,9.239,2.898,14.358,2.898
			c5.111,0,9.9-0.969,14.358-2.898c4.457-1.937,8.359-4.575,11.702-7.917c3.343-3.349,5.981-7.246,7.913-11.705
			c0.219-0.509,0.387-1.042,0.582-1.56V40.019z"/>
	</g>
</g>
</svg>
